<svg width="877" height="1151" viewBox="0 0 877 1151" fill="none" xmlns="http://www.w3.org/2000/svg">
<path d="M741.264 391.004V331.994" stroke="white" stroke-width="10" stroke-linecap="round"/>
<path d="M796.514 443.003L741.514 391.003" stroke="white" stroke-width="10" stroke-linecap="round"/>
<path d="M741.5 332C729.074 332 719 321.926 719 309.5C719 297.074 729.074 287 741.5 287C753.926 287 764 297.074 764 309.5C764 321.926 753.926 332 741.5 332Z" stroke="white" stroke-width="10" stroke-miterlimit="10" stroke-linecap="round"/>
<path d="M132.765 391.004V331.994" stroke="white" stroke-width="10" stroke-linecap="round"/>
<path d="M77.5146 443.003L132.515 391.003" stroke="white" stroke-width="10" stroke-linecap="round"/>
<path d="M133.5 332C121.074 332 111 321.926 111 309.5C111 297.074 121.074 287 133.5 287C145.926 287 156 297.074 156 309.5C156 321.926 145.926 332 133.5 332Z" stroke="white" stroke-width="10" stroke-miterlimit="10" stroke-linecap="round"/>
<path d="M370.515 958.003L366.663 1020" stroke="white" stroke-width="10" stroke-linecap="round"/>
<path d="M501.515 932.003L370.515 957.269" stroke="white" stroke-width="10" stroke-linecap="round"/>
<path d="M295.515 1029L380.621 1100.1" stroke="white" stroke-width="10" stroke-linecap="round"/>
<path d="M366.515 1020L412.562 1058.47" stroke="white" stroke-width="10" stroke-linecap="round"/>
<path d="M284.515 1049L361.261 1113.11" stroke="white" stroke-width="10" stroke-linecap="round"/>
<path d="M226.515 288.003L231.858 290.39C254.894 300.683 279.841 306.003 305.072 306.003V306.003H306.545C331.908 306.003 356.758 298.866 378.256 285.41V285.41C414.81 262.528 461.517 262.714 498.07 285.595V285.595C519.269 298.865 543.934 306.003 568.943 306.003V306.003H570.845C596.15 306.003 621.17 300.667 644.274 290.344L649.515 288.003" stroke="white" stroke-width="10" stroke-linecap="round"/>
<path d="M179.948 198.693V198.693C147.853 208.619 142.289 251.665 170.834 269.203L171.908 269.863" stroke="white" stroke-width="10" stroke-linecap="round"/>
<path d="M703.383 269.863V269.863C732.48 253.25 728.301 210.053 696.538 199.105L695.343 198.693" stroke="white" stroke-width="10" stroke-linecap="round"/>
<path d="M748.514 230.003C748.514 241.979 744.79 252.638 739.001 260.196C733.215 267.75 725.574 272.003 717.514 272.003C709.455 272.003 701.814 267.75 696.028 260.196C690.238 252.638 686.514 241.979 686.514 230.003C686.514 218.026 690.238 207.368 696.028 199.809C701.814 192.255 709.455 188.003 717.514 188.003C725.574 188.003 733.215 192.255 739.001 199.809C744.79 207.368 748.514 218.026 748.514 230.003Z" stroke="white" stroke-width="10"/>
<path d="M748.514 230.003C748.514 241.979 744.79 252.638 739.001 260.196C733.215 267.75 725.574 272.003 717.514 272.003C709.455 272.003 701.814 267.75 696.028 260.196C690.238 252.638 686.514 241.979 686.514 230.003C686.514 218.026 690.238 207.368 696.028 199.809C701.814 192.255 709.455 188.003 717.514 188.003C725.574 188.003 733.215 192.255 739.001 199.809C744.79 207.368 748.514 218.026 748.514 230.003Z" stroke="white" stroke-width="10"/>
<path d="M748.514 230.003C748.514 241.979 744.79 252.638 739.001 260.196C733.215 267.75 725.574 272.003 717.514 272.003C709.455 272.003 701.814 267.75 696.028 260.196C690.238 252.638 686.514 241.979 686.514 230.003C686.514 218.026 690.238 207.368 696.028 199.809C701.814 192.255 709.455 188.003 717.514 188.003C725.574 188.003 733.215 192.255 739.001 199.809C744.79 207.368 748.514 218.026 748.514 230.003Z" stroke="white" stroke-width="10"/>
<path d="M189.515 230.003C189.515 241.979 185.791 252.638 180.001 260.196C174.215 267.75 166.574 272.003 158.515 272.003C150.455 272.003 142.814 267.75 137.028 260.196C131.239 252.638 127.515 241.979 127.515 230.003C127.515 218.026 131.239 207.368 137.028 199.809C142.814 192.255 150.455 188.003 158.515 188.003C166.574 188.003 174.215 192.255 180.001 199.809C185.791 207.368 189.515 218.026 189.515 230.003Z" stroke="white" stroke-width="10"/>
<path d="M189.515 230.003C189.515 241.979 185.791 252.638 180.001 260.196C174.215 267.75 166.574 272.003 158.515 272.003C150.455 272.003 142.814 267.75 137.028 260.196C131.239 252.638 127.515 241.979 127.515 230.003C127.515 218.026 131.239 207.368 137.028 199.809C142.814 192.255 150.455 188.003 158.515 188.003C166.574 188.003 174.215 192.255 180.001 199.809C185.791 207.368 189.515 218.026 189.515 230.003Z" stroke="white" stroke-width="10"/>
<path d="M189.515 230.003C189.515 241.979 185.791 252.638 180.001 260.196C174.215 267.75 166.574 272.003 158.515 272.003C150.455 272.003 142.814 267.75 137.028 260.196C131.239 252.638 127.515 241.979 127.515 230.003C127.515 218.026 131.239 207.368 137.028 199.809C142.814 192.255 150.455 188.003 158.515 188.003C166.574 188.003 174.215 192.255 180.001 199.809C185.791 207.368 189.515 218.026 189.515 230.003Z" stroke="white" stroke-width="10"/>
<path d="M585.514 60.0027L574.277 55.4206C488.289 20.3587 392.085 19.8755 305.762 54.0719L295.559 58.1139L286.47 61.9061C248.658 77.6833 214.217 100.554 185.007 129.282V129.282V129.282C150.61 161.813 123.988 201.679 107.12 245.917L102.596 257.782L92.7523 289.467C84.6014 315.704 79.4809 342.788 77.4909 370.19L76.8745 378.677C75.2655 400.833 75.7107 423.091 78.2044 445.165L79.4802 456.459C81.4878 474.229 84.8167 491.826 89.4392 509.102L92.5459 520.713L101.989 554.146C102.376 555.516 102.161 556.985 101.398 558.186L82.497 587.929L68.4269 609.676L52.3467 635.376L28.2264 674.914L26.4822 679.489C16.3507 706.061 38.2039 733.848 66.4169 730.268V730.268L68.8021 729.975C77.8993 728.856 86.8295 726.652 95.402 723.409V723.409C104.186 720.087 112.528 715.698 120.242 710.343L122.234 708.96C135.826 699.523 147.559 687.658 156.843 673.962L157.254 673.357C158.025 672.219 159.707 672.235 160.456 673.388L212.287 753.122C228.875 778.639 248.631 801.951 271.082 822.499L378.103 920.448C380.216 922.383 380.276 925.693 378.234 927.702L351.747 953.752C337.096 968.162 323.706 983.8 311.724 1000.5L305.61 1009.01L299.972 1017.58C289.109 1034.1 281.794 1052.68 278.492 1072.17L276.575 1083.48C274.514 1095.65 275.019 1108.11 278.059 1120.06V1120.06C282.143 1136.13 298.665 1145.68 314.624 1141.19L317.662 1140.34C324.348 1138.46 330.815 1135.88 336.953 1132.62L341.218 1130.37C349.619 1125.92 357.554 1120.64 364.906 1114.61L377.971 1103.91L380.296 1101.62C403.964 1078.34 422.709 1050.54 435.414 1019.87V1019.87C436.537 1017.15 440.325 1017.01 441.656 1019.63L460.382 1056.46" stroke="white" stroke-width="10" stroke-linecap="round"/>
<path d="M291.077 60.0027L302.314 55.4206C388.302 20.3587 484.506 19.8755 570.829 54.0719L581.032 58.1139L590.121 61.9061C627.933 77.6833 662.373 100.554 691.584 129.282V129.282V129.282C725.981 161.813 752.603 201.679 769.471 245.917L773.995 257.782L783.839 289.467C791.989 315.704 797.11 342.788 799.1 370.19L799.716 378.677C801.325 400.833 800.88 423.091 798.386 445.165L797.111 456.459C795.103 474.229 791.774 491.826 787.152 509.102L784.045 520.713L774.602 554.146C774.215 555.516 774.43 556.985 775.193 558.186L794.094 587.929L808.164 609.676L824.244 635.376L848.364 674.914L850.109 679.489C860.24 706.061 838.387 733.848 810.174 730.268V730.268L807.789 729.975C798.692 728.856 789.761 726.652 781.189 723.409V723.409C772.405 720.087 764.063 715.698 756.349 710.343L754.357 708.96C740.764 699.523 729.031 687.658 719.747 673.962L719.337 673.357C718.566 672.219 716.884 672.235 716.135 673.388L664.304 753.122C647.716 778.639 627.96 801.951 605.509 822.499L498.488 920.448C496.374 922.383 496.315 925.693 498.357 927.702L524.843 953.752C539.495 968.162 552.885 983.8 564.867 1000.5L570.981 1009.01L576.619 1017.58C587.482 1034.1 594.796 1052.68 598.099 1072.17L600.016 1083.48C602.077 1095.65 601.571 1108.11 598.532 1120.06V1120.06C594.448 1136.13 577.926 1145.68 561.966 1141.19L558.929 1140.34C552.243 1138.46 545.776 1135.88 539.638 1132.62L535.373 1130.37C526.972 1125.92 519.037 1120.64 511.684 1114.61L498.62 1103.91L496.295 1101.62C472.627 1078.34 453.882 1050.54 441.177 1019.87V1019.87C440.053 1017.15 436.265 1017.01 434.934 1019.63L416.209 1056.46" stroke="white" stroke-width="10" stroke-linecap="round"/>
<mask id="path-19-inside-1_2222_151" fill="white">
<path d="M648.515 603.459C648.515 744.607 553.823 885.003 437.015 885.003C320.206 885.003 225.515 744.607 225.515 603.459C225.515 462.311 320.206 391.003 437.015 391.003C553.823 391.003 648.515 462.311 648.515 603.459Z"/>
</mask>
<path d="M648.515 603.459C648.515 744.607 553.823 885.003 437.015 885.003C320.206 885.003 225.515 744.607 225.515 603.459C225.515 462.311 320.206 391.003 437.015 391.003C553.823 391.003 648.515 462.311 648.515 603.459Z" stroke="white" stroke-width="20" mask="url(#path-19-inside-1_2222_151)"/>
</svg>
